<?xml version="1.0" standalone="no"?><!DOCTYPE svg PUBLIC "-//W3C//DTD SVG 1.1//EN" "http://www.w3.org/Graphics/SVG/1.1/DTD/svg11.dtd"><svg t="1630027635813" class="icon" viewBox="0 0 1024 1024" version="1.1" xmlns="http://www.w3.org/2000/svg" p-id="4699" xmlns:xlink="http://www.w3.org/1999/xlink" width="48" height="48"><defs><style type="text/css"></style></defs><path d="M512 652.8c-160 0-294.4-134.4-294.4-294.4S352 64 512 64s294.4 134.4 294.4 294.4-134.4 294.4-294.4 294.4z m0-550.4c-140.8 0-256 115.2-256 256s115.2 256 256 256 256-115.2 256-256-115.2-256-256-256z" fill="#D33E42" p-id="4700"></path><path d="M940.8 966.4c-6.4 0-19.2-6.4-19.2-19.2-25.6-166.4-204.8-288-409.6-288s-377.6 121.6-409.6 288c0 12.8-12.8 19.2-19.2 12.8-12.8 0-19.2-12.8-19.2-19.2 32-179.2 224-320 448-320s416 140.8 448 320c0 12.8-6.4 25.6-19.2 25.6zM512 544c-76.8 0-140.8-44.8-160-115.2-6.4-12.8 0-19.2 12.8-25.6 12.8 0 19.2 0 25.6 12.8 19.2 57.6 70.4 89.6 128 89.6 57.6 0 108.8-38.4 128-89.6 6.4-12.8 12.8-12.8 25.6-12.8 12.8 6.4 12.8 12.8 12.8 25.6-32 70.4-102.4 115.2-172.8 115.2z" fill="#D33E42" p-id="4701"></path></svg>