<?xml version="1.0" standalone="no"?><!DOCTYPE svg PUBLIC "-//W3C//DTD SVG 1.1//EN" "http://www.w3.org/Graphics/SVG/1.1/DTD/svg11.dtd"><svg t="1630027973451" class="icon" viewBox="0 0 1024 1024" version="1.1" xmlns="http://www.w3.org/2000/svg" p-id="5593" xmlns:xlink="http://www.w3.org/1999/xlink" width="48" height="48"><defs><style type="text/css"></style></defs><path d="M791.22432 476.52864 420.57728 262.53312l-61.44-35.47136 0 70.94272 0 427.99104 0 70.94272 61.44-35.47136 370.6368-213.98528 61.44-35.47136L791.22432 476.52864zM400.09728 725.98528 400.09728 298.00448 770.74432 512 400.09728 725.98528z" p-id="5594" fill="#D33E42"></path><path d="M512 0C229.23264 0 0 229.23264 0 512c0 282.75712 229.23264 512 512 512 282.7776 0 512-229.24288 512-512C1024 229.23264 794.7776 0 512 0zM512 983.04C252.27264 983.04 40.96 771.72736 40.96 512 40.96 252.2624 252.27264 40.96 512 40.96c259.7376 0 471.04 211.3024 471.04 471.04C983.04 771.72736 771.7376 983.04 512 983.04z" p-id="5595" fill="#D33E42"></path></svg>